<svg width="14" height="19" viewBox="0 0 14 19" fill="none" xmlns="http://www.w3.org/2000/svg">
<path d="M8.68579 9.66129H13.348V7.92613H9.88955L7.97882 4.71608C7.69221 4.23409 7.17632 3.90634 6.58399 3.90634C6.41202 3.90634 6.25916 3.93526 6.10631 3.98345L0.928223 5.61258V10.6253H2.64788V7.08747L4.6637 6.45124L0.928223 21.229H2.64788L5.38978 13.4112L7.61578 16.4092V21.229H9.33544V15.0499L6.95658 10.6735L7.654 7.90685M8.57115 3.68462C9.52652 3.68462 10.2908 2.91344 10.2908 1.94946C10.2908 0.985478 9.52652 0.214294 8.57115 0.214294C7.61578 0.214294 6.85149 0.985478 6.85149 1.94946C6.85149 2.91344 7.61578 3.68462 8.57115 3.68462Z" fill="black"/>
</svg>
